# xmcd
#
# Track frame offsets: 
#        150
#        20527
#        37033
#        52425
#        71460
#        90357
#        108170
#        125948
#        145435
#        160690
#        178069
#        193157
#        210600
#        229275
#        248964
#        265821
#        282143
#
# Disc length: 4005 seconds
#
# Revision: 0
# Processed by: cddbd v1.5.1PL0 Copyright (c) Steve Scherf et al.
# Submitted via: ExactAudioCopy v0.95a3
#
DISCID=040fa311
DTITLE=Various Artist - Дискотека В Стиле Вирус!
DYEAR=2000
DGENRE=Pop
TTITLE0=Вирус - Позови Меня
TTITLE1=DVD - Покажи Мне Любовь
TTITLE2=Основной Инстинкт - Бич-Пати
TTITLE3=Ночной Патруль - Вечером, Вечером
TTITLE4=Вирус - Ручки (Ремикс)
TTITLE5=Плохишь - Дискотека На Луне
TTITLE6=Рефлекс - Сколько Лет, Сколько Зим
TTITLE7=Космос - Мужская Дружба
TTITLE8=Стрелки - Нелюбовь (Ремикс)
TTITLE9=Dj Smash - Между Небом И Землёй
TTITLE10=Natasha - Баю-Баю
TTITLE11=Пульс - Беги
TTITLE12=Ди-Бронкс and Натали - Мы Были Вместе
TTITLE13=Ворон Light - Той Девчонке
TTITLE14=Наши Звёзды - Первая Любовь
TTITLE15=Аура Project - Я Закрываю Глаза
TTITLE16=Zolter - Колыбельная
EXTD=
EXTT0=
EXTT1=
EXTT2=
EXTT3=
EXTT4=
EXTT5=
EXTT6=
EXTT7=
EXTT8=
EXTT9=
EXTT10=
EXTT11=
EXTT12=
EXTT13=
EXTT14=
EXTT15=
EXTT16=
PLAYORDER=
